<svg width="300" height="500" viewBox="0 0 300 500" xmlns="http://www.w3.org/2000/svg">
  <!-- 手机外框 -->
  <rect x="20" y="20" width="260" height="460" rx="25" ry="25" fill="#2c3e50" stroke="#34495e" stroke-width="2"/>
  
  <!-- 屏幕 -->
  <rect x="30" y="60" width="240" height="380" rx="10" ry="10" fill="#34495e"/>
  
  <!-- 返回按钮 -->
  <text x="40" y="85" fill="white" font-size="16">←</text>
  
  <!-- 标题 -->
  <text x="50" y="85" fill="white" font-size="12">从化妇幼保健院共建实验室 - 从化妇幼常规实验</text>
  
  <!-- 临期物料卡片 -->
  <rect x="40" y="100" width="220" height="80" rx="8" fill="#f39c12"/>
  <text x="50" y="120" fill="white" font-size="10" font-weight="bold">临期物料</text>
  <text x="50" y="135" fill="white" font-size="8">1. BX7002 交叉配血质控品</text>
  <text x="50" y="148" fill="white" font-size="8">2. 抗体筛选红细胞试剂盒</text>
  <text x="50" y="161" fill="white" font-size="8">3. BK436609 (GAS 975028)</text>
  <text x="200" y="135" fill="white" font-size="8">数量: 1.00</text>
  <text x="200" y="148" fill="white" font-size="8">天数: 15</text>
  
  <!-- 过期物料卡片 -->
  <rect x="40" y="190" width="220" height="60" rx="8" fill="#e74c3c"/>
  <text x="50" y="210" fill="white" font-size="10" font-weight="bold">过期物料</text>
  <text x="50" y="225" fill="white" font-size="8">1. 6C37.09 丙型肝炎病毒抗体检测试剂盒</text>
  <text x="50" y="238" fill="white" font-size="8">2. 骨源性碱性磷酸酶检测试剂盒</text>
  <text x="200" y="225" fill="white" font-size="8">数量: 0.10</text>
  <text x="200" y="238" fill="white" font-size="8">天数: 17</text>
  
  <!-- 统计卡片 -->
  <rect x="40" y="260" width="100" height="50" rx="8" fill="#3498db"/>
  <text x="90" y="280" text-anchor="middle" fill="white" font-size="10">物料总数</text>
  <text x="90" y="295" text-anchor="middle" fill="white" font-size="16" font-weight="bold">371</text>
  
  <rect x="160" y="260" width="100" height="50" rx="8" fill="#3498db"/>
  <text x="210" y="280" text-anchor="middle" fill="white" font-size="10">物料种类</text>
  <text x="210" y="295" text-anchor="middle" fill="white" font-size="16" font-weight="bold">272</text>
  
  <!-- 功能按钮 -->
  <rect x="40" y="320" width="220" height="40" rx="8" fill="#2c3e50" stroke="#34495e"/>
  <text x="50" y="340" fill="white" font-size="12">📝 院内领用</text>
  
  <rect x="40" y="370" width="100" height="40" rx="8" fill="#2c3e50" stroke="#34495e"/>
  <text x="90" y="390" text-anchor="middle" fill="white" font-size="12">📦 库存</text>
  
  <rect x="160" y="370" width="100" height="40" rx="8" fill="#2c3e50" stroke="#34495e"/>
  <text x="210" y="390" text-anchor="middle" fill="white" font-size="12">⚙️ 设置</text>
  
  <!-- 底部信息 -->
  <text x="40" y="430" fill="#95a5a6" font-size="10">检验科</text>
  <text x="220" y="430" fill="#95a5a6" font-size="10">登出 ↗</text>
</svg>