<svg width="300" height="400" xmlns="http://www.w3.org/2000/svg">
  <defs>
    <linearGradient id="bgGrad" x1="0%" y1="0%" x2="0%" y2="100%">
      <stop offset="0%" style="stop-color:#2c3e50;stop-opacity:1" />
      <stop offset="100%" style="stop-color:#34495e;stop-opacity:1" />
    </linearGradient>
  </defs>
  
  <!-- 背景 -->
  <rect width="300" height="400" fill="url(#bgGrad)"/>
  
  <!-- 顶部状态栏 -->
  <text x="20" y="25" fill="white" font-size="12">12:11</text>
  <text x="250" y="25" fill="white" font-size="12">📶📶🔋</text>
  
  <!-- 标题 -->
  <text x="20" y="55" fill="white" font-size="14" font-weight="bold">无效RFID列表共：19 个</text>
  
  <!-- RFID列表 -->
  <rect x="20" y="70" width="260" height="25" fill="rgba(255,255,255,0.1)" stroke="rgba(255,255,255,0.2)" stroke-width="1" rx="4"/>
  <text x="30" y="85" fill="white" font-size="11">单品码：E123456700000000002DDC3</text>
  
  <rect x="20" y="100" width="260" height="25" fill="rgba(255,255,255,0.1)" stroke="rgba(255,255,255,0.2)" stroke-width="1" rx="4"/>
  <text x="30" y="115" fill="white" font-size="11">单品码：E123456700000000002DD88</text>
  
  <rect x="20" y="130" width="260" height="25" fill="rgba(255,255,255,0.1)" stroke="rgba(255,255,255,0.2)" stroke-width="1" rx="4"/>
  <text x="30" y="145" fill="white" font-size="11">单品码：E123456700000000002DD89</text>
  
  <rect x="20" y="160" width="260" height="25" fill="rgba(255,255,255,0.1)" stroke="rgba(255,255,255,0.2)" stroke-width="1" rx="4"/>
  <text x="30" y="175" fill="white" font-size="11">单品码：E123456700000000002DD8A</text>
  
  <rect x="20" y="190" width="260" height="25" fill="rgba(255,255,255,0.1)" stroke="rgba(255,255,255,0.2)" stroke-width="1" rx="4"/>
  <text x="30" y="205" fill="white" font-size="11">单品码：E123456700000000002DD8B</text>
  
  <rect x="20" y="220" width="260" height="25" fill="rgba(255,255,255,0.1)" stroke="rgba(255,255,255,0.2)" stroke-width="1" rx="4"/>
  <text x="30" y="235" fill="white" font-size="11">单品码：E123456700000000002DD8C</text>
  
  <rect x="20" y="250" width="260" height="25" fill="rgba(255,255,255,0.1)" stroke="rgba(255,255,255,0.2)" stroke-width="1" rx="4"/>
  <text x="30" y="265" fill="white" font-size="11">单品码：E123456700000000002DD8D</text>
  
  <rect x="20" y="280" width="260" height="25" fill="rgba(255,255,255,0.1)" stroke="rgba(255,255,255,0.2)" stroke-width="1" rx="4"/>
  <text x="30" y="295" fill="white" font-size="11">单品码：E123456700000000002DDC0</text>
  
  <rect x="20" y="310" width="260" height="25" fill="rgba(255,255,255,0.1)" stroke="rgba(255,255,255,0.2)" stroke-width="1" rx="4"/>
  <text x="30" y="325" fill="white" font-size="11">单品码：E123456700000000002DDC1</text>
  
  <rect x="20" y="340" width="260" height="25" fill="rgba(255,255,255,0.1)" stroke="rgba(255,255,255,0.2)" stroke-width="1" rx="4"/>
  <text x="30" y="355" fill="white" font-size="11">单品码：E123456700000000002DDC2</text>
  
  <!-- 底部统计和按钮 -->
  <rect x="20" y="375" width="50" height="20" fill="rgba(255,255,255,0.2)" rx="4"/>
  <text x="45" y="387" text-anchor="middle" fill="white" font-size="10">全部</text>
  
  <rect x="80" y="375" width="50" height="20" fill="rgba(255,255,255,0.3)" rx="4"/>
  <text x="105" y="387" text-anchor="middle" fill="white" font-size="10">盘盈</text>
  
  <text x="150" y="387" fill="white" font-size="12">20 / 70</text>
  
  <!-- 完成按钮 -->
  <rect x="240" y="375" width="40" height="20" fill="#27ae60" rx="10"/>
  <text x="260" y="387" text-anchor="middle" fill="white" font-size="12">✓</text>
</svg>