<svg width="300" height="400" xmlns="http://www.w3.org/2000/svg">
  <defs>
    <linearGradient id="bgGrad" x1="0%" y1="0%" x2="0%" y2="100%">
      <stop offset="0%" style="stop-color:#2c3e50;stop-opacity:1" />
      <stop offset="100%" style="stop-color:#34495e;stop-opacity:1" />
    </linearGradient>
  </defs>
  
  <!-- 背景 -->
  <rect width="300" height="400" fill="url(#bgGrad)"/>
  
  <!-- 顶部状态栏 -->
  <text x="20" y="25" fill="white" font-size="12">12:08</text>
  <text x="250" y="25" fill="white" font-size="12">📶📶🔋</text>
  
  <!-- 货位标题 LC-A-01 -->
  <rect x="20" y="40" width="260" height="25" fill="rgba(255,255,255,0.2)" rx="4"/>
  <text x="30" y="55" fill="white" font-size="12" font-weight="bold">货位：LC-A-01</text>
  
  <!-- 物料1 -->
  <rect x="20" y="70" width="260" height="45" fill="rgba(255,255,255,0.1)" stroke="rgba(255,255,255,0.2)" stroke-width="1" rx="4"/>
  <text x="30" y="85" fill="white" font-size="11">人参皂苷F1</text>
  <text x="30" y="98" fill="rgba(255,255,255,0.8)" font-size="9">批号:20231201 效期:2024-12-01</text>
  <text x="30" y="110" fill="rgba(255,255,255,0.8)" font-size="9">货位:LC-A-01</text>
  
  <text x="220" y="85" fill="#27ae60" font-size="9">完成</text>
  <text x="220" y="95" fill="#27ae60" font-size="9">盘点:0</text>
  <text x="220" y="105" fill="#27ae60" font-size="9">目视:10</text>
  <text x="250" y="95" fill="#27ae60" font-size="9">EAS:10</text>
  
  <!-- 物料2 -->
  <rect x="20" y="120" width="260" height="45" fill="rgba(255,255,255,0.1)" stroke="rgba(255,255,255,0.2)" stroke-width="1" rx="4"/>
  <text x="30" y="135" fill="white" font-size="11">人参皂苷F1</text>
  <text x="30" y="148" fill="rgba(255,255,255,0.8)" font-size="9">批号:20231201 效期:2024-12-01</text>
  <text x="30" y="160" fill="rgba(255,255,255,0.8)" font-size="9">货位:LC-A-01</text>
  
  <text x="220" y="135" fill="#27ae60" font-size="9">完成</text>
  <text x="220" y="145" fill="#27ae60" font-size="9">盘点:0</text>
  <text x="220" y="155" fill="#27ae60" font-size="9">目视:5</text>
  <text x="250" y="145" fill="#27ae60" font-size="9">EAS:5</text>
  
  <!-- 物料3 -->
  <rect x="20" y="170" width="260" height="45" fill="rgba(255,255,255,0.1)" stroke="rgba(255,255,255,0.2)" stroke-width="1" rx="4"/>
  <text x="30" y="185" fill="white" font-size="11">人参皂苷F1</text>
  <text x="30" y="198" fill="rgba(255,255,255,0.8)" font-size="9">批号:20231201 效期:2024-12-01</text>
  <text x="30" y="210" fill="rgba(255,255,255,0.8)" font-size="9">货位:LC-A-01</text>
  
  <text x="220" y="185" fill="#27ae60" font-size="9">完成</text>
  <text x="220" y="195" fill="#27ae60" font-size="9">盘点:0</text>
  <text x="220" y="205" fill="#27ae60" font-size="9">目视:10</text>
  <text x="250" y="195" fill="#27ae60" font-size="9">EAS:10</text>
  
  <!-- 货位标题 LC-A-02 -->
  <rect x="20" y="220" width="260" height="25" fill="rgba(255,255,255,0.2)" rx="4"/>
  <text x="30" y="235" fill="white" font-size="12" font-weight="bold">货位：LC-A-02</text>
  
  <!-- 物料4 -->
  <rect x="20" y="250" width="260" height="45" fill="rgba(255,255,255,0.1)" stroke="rgba(255,255,255,0.2)" stroke-width="1" rx="4"/>
  <text x="30" y="265" fill="white" font-size="11">人参皂苷F1</text>
  <text x="30" y="278" fill="rgba(255,255,255,0.8)" font-size="9">批号:20231101 效期:2024-11-01</text>
  <text x="30" y="290" fill="rgba(255,255,255,0.8)" font-size="9">货位:LC-A-02</text>
  
  <text x="220" y="265" fill="#27ae60" font-size="9">完成</text>
  <text x="220" y="275" fill="#27ae60" font-size="9">盘点:0</text>
  <text x="220" y="285" fill="#27ae60" font-size="9">目视:10</text>
  <text x="250" y="275" fill="#27ae60" font-size="9">EAS:10</text>
  
  <!-- 货位标题 LC-B-01 -->
  <rect x="20" y="300" width="260" height="25" fill="rgba(255,255,255,0.2)" rx="4"/>
  <text x="30" y="315" fill="white" font-size="12" font-weight="bold">货位：LC-B-01</text>
  
  <!-- 物料5 -->
  <rect x="20" y="330" width="260" height="35" fill="rgba(255,255,255,0.1)" stroke="rgba(255,255,255,0.2)" stroke-width="1" rx="4"/>
  <text x="30" y="345" fill="white" font-size="11">OR-46.150.0510 Obelise R Column</text>
  <text x="30" y="358" fill="rgba(255,255,255,0.8)" font-size="9">批号:20230317 效期:2024-03-17</text>
  
  <text x="220" y="345" fill="#27ae60" font-size="9">完成</text>
  <text x="220" y="355" fill="#27ae60" font-size="9">盘点:0</text>
  
  <!-- 底部按钮 -->
  <rect x="20" y="375" width="260" height="20" fill="#27ae60" rx="10"/>
  <text x="150" y="387" text-anchor="middle" fill="white" font-size="12" font-weight="bold">继续盘点，账面:70，盘点:70</text>
</svg>