<svg width="300" height="400" xmlns="http://www.w3.org/2000/svg">
  <defs>
    <linearGradient id="headerGrad" x1="0%" y1="0%" x2="0%" y2="100%">
      <stop offset="0%" style="stop-color:#2c3e50;stop-opacity:1" />
      <stop offset="100%" style="stop-color:#34495e;stop-opacity:1" />
    </linearGradient>
  </defs>
  
  <!-- 背景 -->
  <rect width="300" height="400" fill="#ecf0f1"/>
  
  <!-- 顶部标题栏 -->
  <rect width="300" height="60" fill="url(#headerGrad)"/>
  <text x="20" y="35" fill="white" font-size="16" font-weight="bold">清远市中医院</text>
  
  <!-- 返回按钮 -->
  <path d="M 260 25 L 270 30 L 260 35 L 260 32 L 275 32 L 275 28 L 260 28 Z" fill="white"/>
  
  <!-- 扫描提示区域 -->
  <rect x="20" y="80" width="260" height="80" fill="#e74c3c" stroke="#c0392b" stroke-width="2" rx="8"/>
  <text x="150" y="105" text-anchor="middle" fill="white" font-size="14" font-weight="bold">二维码扫描模式</text>
  <text x="150" y="125" text-anchor="middle" fill="white" font-size="12">请使用PDA7100扫描物料二维码</text>
  <text x="150" y="145" text-anchor="middle" fill="white" font-size="11">扫描后自动查询物料信息</text>
  
  <!-- 搜索栏 -->
  <rect x="20" y="180" width="220" height="35" fill="white" stroke="#e74c3c" stroke-width="2" rx="4"/>
  <text x="30" y="200" fill="#7f8c8d" font-size="12">扫描结果将自动显示在此</text>
  
  <!-- 搜索按钮 -->
  <rect x="250" y="182" width="30" height="31" fill="#e74c3c" rx="4"/>
  <text x="265" y="200" text-anchor="middle" fill="white" font-size="12">🔍</text>
  
  <!-- 物料信息卡片 -->
  <rect x="20" y="230" width="260" height="100" fill="white" stroke="#bdc3c7" stroke-width="1" rx="8"/>
  <text x="30" y="250" fill="#2c3e50" font-size="12" font-weight="bold">名称:缓冲液 V8 Haemoglobin Ul...</text>
  <text x="30" y="265" fill="#2c3e50" font-size="11">编码:06100813</text>
  <text x="30" y="280" fill="#2c3e50" font-size="11">效期:2026-04-30 00:00:00</text>
  <text x="30" y="295" fill="#2c3e50" font-size="11">批号:11963934</text>
  <text x="30" y="310" fill="#2c3e50" font-size="11">库位:常温库-生化-J1-B2-3</text>
  
  <!-- 状态信息 -->
  <rect x="200" y="240" width="50" height="20" fill="#27ae60" rx="10"/>
  <text x="225" y="252" text-anchor="middle" fill="white" font-size="10">已完成</text>
  
  <text x="200" y="270" fill="#2c3e50" font-size="10">库存数量:-2</text>
  <text x="200" y="285" fill="#2c3e50" font-size="10">盘点数量:0</text>
  <text x="200" y="300" fill="#2c3e50" font-size="10">目视数量:0</text>
  
  <!-- 目视按钮 -->
  <rect x="200" y="305" width="40" height="20" fill="#f39c12" rx="10"/>
  <text x="220" y="317" text-anchor="middle" fill="white" font-size="9">👁</text>
  
  <!-- 领用流程说明 -->
  <rect x="20" y="350" width="260" height="40" fill="#d5dbdb" stroke="#bdc3c7" stroke-width="1" rx="6"/>
  <text x="30" y="365" fill="#2c3e50" font-size="11" font-weight="bold">二维码领用流程：</text>
  <text x="30" y="380" fill="#2c3e50" font-size="10">1. 扫描二维码 → 2. 选择操作人和用途 → 3. 确认出库</text>
</svg>