<svg width="300" height="400" xmlns="http://www.w3.org/2000/svg">
  <defs>
    <linearGradient id="headerGrad" x1="0%" y1="0%" x2="0%" y2="100%">
      <stop offset="0%" style="stop-color:#2c3e50;stop-opacity:1" />
      <stop offset="100%" style="stop-color:#34495e;stop-opacity:1" />
    </linearGradient>
  </defs>
  
  <!-- 背景 -->
  <rect width="300" height="400" fill="#ecf0f1"/>
  
  <!-- 顶部标题栏 -->
  <rect width="300" height="60" fill="url(#headerGrad)"/>
  <text x="20" y="35" fill="white" font-size="18" font-weight="bold">设置</text>
  
  <!-- 返回按钮 -->
  <path d="M 260 25 L 270 30 L 260 35 L 260 32 L 275 32 L 275 28 L 260 28 Z" fill="white"/>
  
  <!-- 版本信息区域 -->
  <rect x="20" y="80" width="260" height="80" fill="white" stroke="#bdc3c7" stroke-width="1" rx="8"/>
  <rect x="30" y="90" width="30" height="30" fill="#3498db" rx="15"/>
  <text x="45" y="110" text-anchor="middle" fill="white" font-size="14">ℹ️</text>
  <text x="70" y="105" fill="#2c3e50" font-size="14" font-weight="bold">版本信息</text>
  <text x="30" y="130" fill="#7f8c8d" font-size="12">当前版本：</text>
  <text x="30" y="150" fill="#2c3e50" font-size="12" font-weight="bold">1.0.20250915</text>
  
  <!-- 应用更新设置区域 -->
  <rect x="20" y="180" width="260" height="100" fill="white" stroke="#bdc3c7" stroke-width="1" rx="8"/>
  <text x="30" y="200" fill="#2c3e50" font-size="14" font-weight="bold">应用更新设置</text>
  <text x="30" y="220" fill="#7f8c8d" font-size="12">更新地址：</text>
  <text x="30" y="240" fill="#2c3e50" font-size="10">https://file.lineae.cn/pdas/qy</text>
  <text x="30" y="255" fill="#2c3e50" font-size="10">_pda/QyKspdUpdate.json</text>
  
  <!-- 编辑按钮 -->
  <rect x="220" y="235" width="40" height="20" fill="#9b59b6" rx="10"/>
  <text x="240" y="247" text-anchor="middle" fill="white" font-size="9">✏️ 编辑</text>
  
  <!-- 更新版本按钮 -->
  <rect x="40" y="265" width="200" height="30" fill="#9b59b6" rx="15"/>
  <text x="140" y="282" text-anchor="middle" fill="white" font-size="12" font-weight="bold">更新版本</text>
  
  <!-- 服务器设置区域 -->
  <rect x="20" y="300" width="260" height="80" fill="white" stroke="#bdc3c7" stroke-width="1" rx="8"/>
  <text x="30" y="320" fill="#2c3e50" font-size="14" font-weight="bold">服务器设置</text>
  <text x="30" y="340" fill="#7f8c8d" font-size="12">内网服务器地址：</text>
  <text x="30" y="360" fill="#2c3e50" font-size="12">http://8.148.207.27:5002</text>
  
  <!-- 编辑按钮 -->
  <rect x="220" y="350" width="40" height="20" fill="#9b59b6" rx="10"/>
  <text x="240" y="362" text-anchor="middle" fill="white" font-size="9">✏️ 编辑</text>
</svg>